<?xml version="1.0" standalone="no"?>
<!DOCTYPE svg PUBLIC "-//W3C//DTD SVG 20010904//EN"
 "http://www.w3.org/TR/2001/REC-SVG-20010904/DTD/svg10.dtd">
<svg version="1.0" xmlns="http://www.w3.org/2000/svg"
 width="720.000000pt" height="720.000000pt" viewBox="0 0 720.000000 720.000000"
 preserveAspectRatio="xMidYMid meet">

<g transform="translate(0.000000,720.000000) scale(0.100000,-0.100000)"
fill="#000000" stroke="none">
<path d="M3368 6658 c-14 -260 -201 -321 -302 -98 -13 30 -28 76 -31 101 l-7
46 -75 -15 -74 -15 8 -41 c14 -73 8 -167 -15 -212 -26 -51 -41 -64 -86 -71
-51 -8 -81 3 -128 45 -37 34 -98 138 -98 170 0 6 -3 12 -6 12 -11 0 -128 -43
-136 -49 -4 -4 -1 -28 7 -55 22 -74 20 -170 -6 -216 -58 -104 -194 -71 -282
67 l-40 63 -51 -30 c-28 -17 -57 -34 -64 -38 -10 -6 -7 -21 13 -65 50 -108 43
-211 -16 -262 -60 -50 -168 -18 -251 74 l-47 53 -61 -47 c-33 -25 -60 -48 -60
-50 0 -2 13 -25 30 -51 60 -95 61 -198 3 -244 -55 -43 -181 -15 -265 58 l-35
31 -29 -32 c-16 -18 -40 -44 -54 -60 l-24 -27 36 -38 c45 -46 77 -109 84 -164
5 -35 1 -50 -18 -78 -46 -68 -136 -75 -245 -20 -32 17 -60 30 -64 30 -3 0 -24
-27 -47 -60 l-42 -59 31 -23 c43 -32 94 -105 110 -155 17 -60 0 -114 -45 -142
-44 -28 -146 -29 -216 -2 l-51 19 -33 -66 -33 -67 54 -35 c109 -70 147 -184
84 -248 -39 -38 -103 -55 -192 -51 l-72 4 -12 -35 c-7 -19 -15 -51 -18 -70 -7
-34 -6 -36 38 -53 64 -27 132 -91 146 -137 28 -93 -63 -170 -201 -170 l-58 0
-7 -67 c-4 -36 -9 -72 -11 -78 -3 -7 18 -18 53 -28 112 -31 183 -108 169 -183
-12 -61 -100 -118 -211 -136 -18 -3 -20 -12 -23 -81 l-3 -77 27 0 c59 0 146
-33 185 -70 43 -41 50 -79 25 -128 -25 -48 -109 -112 -148 -112 -36 -1 -40
-15 -28 -92 l12 -74 62 0 c160 2 239 -94 172 -209 -23 -38 -92 -95 -115 -95
-21 0 -21 -24 0 -88 12 -37 23 -68 24 -70 1 -1 25 3 54 9 96 20 201 -24 216
-90 12 -55 -12 -110 -77 -175 l-61 -60 29 -54 c38 -71 43 -74 89 -57 50 18
142 19 174 2 89 -45 86 -162 -7 -259 l-35 -37 42 -56 c24 -31 49 -59 56 -61 7
-3 32 4 55 16 87 44 188 34 225 -24 28 -42 17 -132 -23 -197 -18 -28 -31 -54
-30 -58 2 -4 26 -28 55 -54 l51 -48 49 34 c67 47 106 60 159 54 68 -7 96 -40
102 -114 3 -46 -1 -71 -21 -121 l-26 -62 59 -40 c32 -22 63 -40 67 -40 5 0 25
16 44 36 67 70 159 96 212 61 54 -35 71 -127 42 -223 -8 -27 -15 -50 -15 -51
0 -5 119 -63 128 -63 5 0 22 18 38 41 58 85 151 124 213 92 54 -28 76 -82 75
-179 l0 -81 70 -23 c39 -12 72 -19 73 -14 2 5 17 33 33 62 40 68 99 112 153
112 74 0 137 -93 137 -203 0 -52 3 -54 94 -63 l64 -7 15 50 c32 107 72 153
140 160 85 10 145 -52 171 -179 l13 -63 75 -3 75 -3 7 53 c14 108 79 198 144
198 65 0 136 -68 170 -162 18 -53 19 -53 107 -35 l60 13 1 69 c1 84 26 148 73
188 38 32 61 33 116 8 49 -22 100 -79 126 -139 11 -26 24 -42 32 -39 6 2 38
13 70 23 57 18 59 19 53 49 -23 125 -15 191 28 238 53 58 133 44 211 -37 28
-28 58 -62 67 -76 l16 -25 65 34 65 34 -20 45 c-26 58 -34 157 -18 206 34 105
162 97 277 -16 l51 -51 34 22 c18 11 46 32 62 46 l28 26 -25 37 c-40 57 -60
112 -60 167 0 61 14 90 53 110 68 35 171 10 249 -61 l42 -37 50 49 c27 26 49
52 49 57 0 5 -16 27 -36 49 -68 76 -99 173 -73 231 36 79 194 78 296 -3 14
-11 29 -20 33 -20 4 0 27 26 52 59 l46 58 -60 53 c-131 116 -141 251 -20 291
48 16 131 5 196 -24 l53 -25 33 69 c19 38 32 70 29 72 -2 2 -28 17 -58 33
-130 69 -181 195 -110 270 41 44 144 57 235 29 27 -8 54 -15 61 -15 10 0 53
108 53 134 0 6 -26 19 -58 28 -71 21 -145 69 -172 112 -71 116 51 218 241 202
l76 -6 12 76 c7 41 11 77 9 78 -1 1 -34 8 -72 15 -161 28 -252 129 -199 221
27 46 127 100 186 100 23 0 59 3 80 6 l37 7 0 78 0 79 -68 0 c-120 0 -204 38
-237 106 -16 34 -16 39 0 80 28 73 102 121 225 145 40 8 59 16 56 24 -2 6 -7
37 -11 67 -10 77 -13 81 -66 69 -103 -24 -209 -9 -261 37 -73 67 -33 182 87
249 33 18 77 36 97 39 l37 6 -28 77 c-16 42 -32 75 -37 74 -5 -1 -35 -11 -66
-23 -111 -39 -248 -17 -276 46 -42 91 30 207 166 266 26 11 48 22 50 23 6 5
-69 146 -76 143 -4 -2 -34 -17 -67 -34 -165 -86 -315 -51 -315 73 0 65 95 196
174 240 18 10 16 15 -33 77 l-53 66 -39 -34 c-112 -102 -261 -122 -309 -43
-45 72 -4 206 85 285 l44 39 -57 56 c-32 31 -62 57 -67 57 -6 0 -21 -16 -35
-35 -36 -50 -107 -101 -167 -120 -46 -15 -58 -15 -94 -4 -60 20 -84 56 -83
127 0 65 26 132 75 193 17 22 29 45 26 52 -2 7 -31 31 -64 54 l-59 41 -27 -42
c-35 -56 -102 -121 -146 -143 -20 -10 -58 -18 -84 -18 -41 0 -53 4 -73 28 -31
36 -47 99 -39 151 8 46 48 142 71 167 13 15 8 20 -55 53 -38 20 -73 36 -78 36
-4 0 -16 -22 -26 -49 -36 -103 -158 -201 -232 -187 -36 7 -79 48 -94 89 -17
44 -12 136 9 197 11 30 21 59 23 64 2 7 -131 56 -154 56 -4 0 -9 -19 -13 -41
-9 -58 -51 -143 -89 -180 -75 -76 -149 -70 -202 15 -29 47 -30 55 -31 165 l-1
116 -39 7 c-22 4 -55 7 -75 7 l-37 1 -12 -66 c-24 -144 -110 -241 -193 -220
-70 17 -125 112 -134 230 l-6 76 -77 0 -77 0 -5 -82z m377 -519 c627 -41 1060
-277 1083 -587 9 -137 -45 -250 -188 -392 -117 -118 -262 -215 -465 -315 -404
-197 -873 -323 -1370 -366 -165 -14 -508 -6 -635 16 -368 62 -560 195 -600
417 -43 235 169 547 540 794 394 263 891 421 1370 437 47 2 90 4 95 5 6 1 82
-3 170 -9z m1500 -895 c49 -26 101 -91 116 -147 24 -90 -27 -200 -118 -254
-145 -85 -343 31 -343 202 0 86 64 179 145 210 54 20 150 15 200 -11z m467
-598 c373 -177 511 -977 298 -1736 -141 -503 -458 -1001 -801 -1260 -182 -137
-373 -198 -514 -166 -241 57 -367 328 -367 791 0 330 60 672 181 1046 224 688
600 1233 925 1339 86 28 201 23 278 -14z m-4066 -211 c80 -47 124 -144 109
-235 -10 -59 -62 -130 -115 -157 -61 -31 -160 -32 -210 -2 -85 51 -123 114
-123 199 1 69 20 114 71 163 75 73 178 85 268 32z m2094 -244 c137 -44 277
-154 348 -274 201 -335 51 -765 -316 -910 -65 -25 -95 -31 -187 -35 -196 -8
-335 46 -470 182 -131 131 -185 259 -185 438 0 180 56 315 185 443 90 90 165
135 277 165 96 26 253 22 348 -9z m-2102 -441 c159 -38 356 -134 557 -271 334
-227 722 -616 967 -970 265 -383 414 -760 394 -999 -15 -173 -85 -286 -218
-348 -81 -39 -148 -52 -257 -52 -464 0 -1119 383 -1524 893 -349 437 -554 971
-516 1340 23 224 117 360 284 413 63 20 217 17 313 -6z m2453 -2002 c52 -15
117 -73 140 -122 22 -49 25 -143 6 -189 -38 -90 -117 -141 -218 -142 -56 0
-73 4 -115 30 -65 41 -104 105 -111 184 -5 52 -2 68 21 115 51 105 168 157
277 124z"/>
</g>
</svg>
