<?xml version="1.0" standalone="no"?>
<!DOCTYPE svg PUBLIC "-//W3C//DTD SVG 20010904//EN"
 "http://www.w3.org/TR/2001/REC-SVG-20010904/DTD/svg10.dtd">
<svg version="1.0" xmlns="http://www.w3.org/2000/svg"
 width="499.000000pt" height="251.000000pt" viewBox="0 0 499.000000 251.000000"
 preserveAspectRatio="xMidYMid meet">

<g transform="translate(0.000000,251.000000) scale(0.100000,-0.100000)"
fill="#000000" stroke="none">
<path d="M1121 2499 c-547 -59 -1001 -483 -1096 -1023 -19 -114 -19 -318 0
-432 80 -457 415 -837 861 -977 185 -58 176 -58 1629 -54 1233 3 1335 4 1405
21 252 59 443 161 616 328 333 322 458 776 338 1231 -32 120 -126 310 -208
418 -183 242 -433 400 -743 471 l-98 22 -1310 2 c-720 1 -1348 -2 -1394 -7z
m251 -421 c82 -38 127 -91 203 -239 67 -130 68 -130 260 -328 138 -142 211
-226 258 -298 69 -102 161 -287 192 -382 13 -39 35 -73 76 -117 33 -35 59 -69
59 -76 0 -7 17 -28 37 -45 32 -27 35 -34 23 -43 -22 -15 -73 -12 -97 5 -15 10
-24 12 -28 4 -4 -6 -14 -8 -22 -5 -9 4 -21 2 -28 -4 -22 -18 -76 12 -125 69
-37 41 -62 58 -135 90 l-90 38 -5 -56 c-3 -31 -13 -69 -22 -84 -10 -14 -18
-35 -18 -46 0 -22 11 -26 99 -35 49 -5 81 -19 81 -36 0 -4 -17 -12 -37 -19
-28 -9 -45 -10 -66 -2 -46 18 -77 13 -129 -20 -50 -33 -118 -54 -118 -37 0 18
30 67 47 78 29 17 -36 0 -77 -21 -26 -13 -40 -15 -54 -7 -10 6 -33 8 -52 5
-49 -8 -39 24 11 35 14 3 9 7 -19 13 -31 6 -49 3 -90 -15 -65 -29 -103 -35
-120 -21 -10 9 -16 8 -26 -4 -17 -21 -33 -19 -26 3 9 27 -34 48 -63 33 -27
-15 -30 8 -3 31 35 32 96 42 170 29 115 -20 161 14 123 93 -15 30 -21 62 -21
111 l0 68 -72 71 c-135 132 -177 217 -222 446 -27 136 -66 265 -92 305 -12 19
-21 21 -69 17 -43 -3 -62 0 -90 17 l-36 21 -9 -26 c-6 -14 -10 -32 -10 -40 0
-27 -18 -14 -34 26 -32 80 -14 161 52 230 24 25 50 61 58 80 20 47 51 79 99
102 59 28 181 21 257 -14z m2533 -83 c115 -40 222 -142 267 -255 17 -44 22
-76 22 -160 1 -101 0 -108 -37 -185 -34 -70 -55 -96 -180 -221 -116 -115 -154
-147 -209 -173 -58 -27 -70 -38 -90 -79 -15 -30 -74 -99 -168 -193 -112 -114
-159 -154 -207 -178 -223 -111 -481 -25 -590 197 -37 75 -38 78 -38 192 0 111
1 118 34 185 28 58 59 95 180 216 117 117 159 152 211 178 57 27 69 38 93 84
33 64 288 320 357 360 100 58 242 70 355 32z"/>
<path d="M1716 713 c-7 -49 -41 -104 -67 -110 -36 -10 -18 -38 25 -38 25 -1
41 -6 47 -18 14 -23 60 -22 93 4 14 11 26 24 26 28 0 5 -15 24 -34 44 -18 20
-42 56 -52 81 -11 25 -22 46 -25 46 -4 0 -9 -17 -13 -37z"/>
<path d="M3725 1824 c-76 -19 -96 -33 -218 -153 -138 -134 -165 -174 -174
-251 -11 -97 42 -196 128 -241 32 -16 39 -25 39 -50 0 -37 -24 -97 -52 -126
l-21 -22 -56 28 c-98 50 -199 174 -217 269 -3 17 -11 32 -16 32 -22 0 -229
-215 -253 -263 -70 -141 14 -315 168 -347 111 -23 176 11 339 177 100 103 118
127 132 173 20 67 20 83 0 149 -17 60 -68 121 -119 145 -31 15 -35 21 -35 54
0 41 28 110 53 130 35 29 189 -82 244 -176 14 -23 33 -67 42 -97 l17 -54 118
118 c66 65 127 133 137 152 60 113 13 266 -99 323 -49 25 -121 38 -157 30z"/>
</g>
</svg>
