<svg xmlns="http://www.w3.org/2000/svg" width="960" height="960" version="1.0" viewBox="0 0 720 720"><path d="M336.8 54.2c-1.4 26-20.1 32.1-30.2 9.8-1.3-3-2.8-7.6-3.1-10.1l-.7-4.6-7.5 1.5-7.4 1.5.8 4.1c1.4 7.3.8 16.7-1.5 21.2-2.6 5.1-4.1 6.4-8.6 7.1-5.1.8-8.1-.3-12.8-4.5-3.7-3.4-9.8-13.8-9.8-17 0-.6-.3-1.2-.6-1.2-1.1 0-12.8 4.3-13.6 4.9-.4.4-.1 2.8.7 5.5 2.2 7.4 2 17-.6 21.6-5.8 10.4-19.4 7.1-28.2-6.7l-4-6.3-5.1 3c-2.8 1.7-5.7 3.4-6.4 3.8-1 .6-.7 2.1 1.3 6.5 5 10.8 4.3 21.1-1.6 26.2-6 5-16.8 1.8-25.1-7.4l-4.7-5.3-6.1 4.7c-3.3 2.5-6 4.8-6 5s1.3 2.5 3 5.1c6 9.5 6.1 19.8.3 24.4-5.5 4.3-18.1 1.5-26.5-5.8l-3.5-3.1-2.9 3.2c-1.6 1.8-4 4.4-5.4 6l-2.4 2.7 3.6 3.8c4.5 4.6 7.7 10.9 8.4 16.4.5 3.5.1 5-1.8 7.8-4.6 6.8-13.6 7.5-24.5 2-3.2-1.7-6-3-6.4-3-.3 0-2.4 2.7-4.7 6l-4.2 5.9 3.1 2.3c4.3 3.2 9.4 10.5 11 15.5 1.7 6 0 11.4-4.5 14.2-4.4 2.8-14.6 2.9-21.6.2l-5.1-1.9-3.3 6.6-3.3 6.7 5.4 3.5c10.9 7 14.7 18.4 8.4 24.8q-5.85 5.7-19.2 5.1l-7.2-.4-1.2 3.5c-.7 1.9-1.5 5.1-1.8 7-.7 3.4-.6 3.6 3.8 5.3 6.4 2.7 13.2 9.1 14.6 13.7 2.8 9.3-6.3 17-20.1 17h-5.8l-.7 6.7c-.4 3.6-.9 7.2-1.1 7.8-.3.7 1.8 1.8 5.3 2.8 11.2 3.1 18.3 10.8 16.9 18.3-1.2 6.1-10 11.8-21.1 13.6-1.8.3-2 1.2-2.3 8.1l-.3 7.7h2.7c5.9 0 14.6 3.3 18.5 7 4.3 4.1 5 7.9 2.5 12.8-2.5 4.8-10.9 11.2-14.8 11.2-3.6.1-4 1.5-2.8 9.2l1.2 7.4h6.2c16-.2 23.9 9.4 17.2 20.9-2.3 3.8-9.2 9.5-11.5 9.5-2.1 0-2.1 2.4 0 8.8 1.2 3.7 2.3 6.8 2.4 7 .1.1 2.5-.3 5.4-.9 9.6-2 20.1 2.4 21.6 9 1.2 5.5-1.2 11-7.7 17.5l-6.1 6 2.9 5.4c3.8 7.1 4.3 7.4 8.9 5.7 5-1.8 14.2-1.9 17.4-.2 8.9 4.5 8.6 16.2-.7 25.9l-3.5 3.7 4.2 5.6c2.4 3.1 4.9 5.9 5.6 6.1.7.3 3.2-.4 5.5-1.6 8.7-4.4 18.8-3.4 22.5 2.4 2.8 4.2 1.7 13.2-2.3 19.7-1.8 2.8-3.1 5.4-3 5.8.2.4 2.6 2.8 5.5 5.4l5.1 4.8 4.9-3.4c6.7-4.7 10.6-6 15.9-5.4 6.8.7 9.6 4 10.2 11.4.3 4.6-.1 7.1-2.1 12.1l-2.6 6.2 5.9 4c3.2 2.2 6.3 4 6.7 4 .5 0 2.5-1.6 4.4-3.6 6.7-7 15.9-9.6 21.2-6.1 5.4 3.5 7.1 12.7 4.2 22.3-.8 2.7-1.5 5-1.5 5.1 0 .5 11.9 6.3 12.8 6.3.5 0 2.2-1.8 3.8-4.1 5.8-8.5 15.1-12.4 21.3-9.2 5.4 2.8 7.6 8.2 7.5 17.9v8.1l7 2.3c3.9 1.2 7.2 1.9 7.3 1.4.2-.5 1.7-3.3 3.3-6.2 4-6.8 9.9-11.2 15.3-11.2 7.4 0 13.7 9.3 13.7 20.3 0 5.2.3 5.4 9.4 6.3l6.4.7 1.5-5c3.2-10.7 7.2-15.3 14-16 8.5-1 14.5 5.2 17.1 17.9l1.3 6.3 7.5.3 7.5.3.7-5.3c1.4-10.8 7.9-19.8 14.4-19.8s13.6 6.8 17 16.2c1.8 5.3 1.9 5.3 10.7 3.5l6-1.3.1-6.9c.1-8.4 2.6-14.8 7.3-18.8 3.8-3.2 6.1-3.3 11.6-.8 4.9 2.2 10 7.9 12.6 13.9 1.1 2.6 2.4 4.2 3.2 3.9.6-.2 3.8-1.3 7-2.3 5.7-1.8 5.9-1.9 5.3-4.9-2.3-12.5-1.5-19.1 2.8-23.8 5.3-5.8 13.3-4.4 21.1 3.7 2.8 2.8 5.8 6.2 6.7 7.6l1.6 2.5 6.5-3.4 6.5-3.4-2-4.5c-2.6-5.8-3.4-15.7-1.8-20.6 3.4-10.5 16.2-9.7 27.7 1.6l5.1 5.1 3.4-2.2c1.8-1.1 4.6-3.2 6.2-4.6l2.8-2.6-2.5-3.7c-4-5.7-6-11.2-6-16.7 0-6.1 1.4-9 5.3-11 6.8-3.5 17.1-1 24.9 6.1l4.2 3.7 5-4.9c2.7-2.6 4.9-5.2 4.9-5.7s-1.6-2.7-3.6-4.9c-6.8-7.6-9.9-17.3-7.3-23.1 3.6-7.9 19.4-7.8 29.6.3 1.4 1.1 2.9 2 3.3 2s2.7-2.6 5.2-5.9l4.6-5.8-6-5.3c-13.1-11.6-14.1-25.1-2-29.1 4.8-1.6 13.1-.5 19.6 2.4l5.3 2.5 3.3-6.9c1.9-3.8 3.2-7 2.9-7.2-.2-.2-2.8-1.7-5.8-3.3-13-6.9-18.1-19.5-11-27 4.1-4.4 14.4-5.7 23.5-2.9 2.7.8 5.4 1.5 6.1 1.5 1 0 5.3-10.8 5.3-13.4 0-.6-2.6-1.9-5.8-2.8-7.1-2.1-14.5-6.9-17.2-11.2-7.1-11.6 5.1-21.8 24.1-20.2l7.6.6 1.2-7.6c.7-4.1 1.1-7.7.9-7.8-.1-.1-3.4-.8-7.2-1.5-16.1-2.8-25.2-12.9-19.9-22.1 2.7-4.6 12.7-10 18.6-10 2.3 0 5.9-.3 8-.6l3.7-.7V349h-6.8c-12 0-20.4-3.8-23.7-10.6-1.6-3.4-1.6-3.9 0-8 2.8-7.3 10.2-12.1 22.5-14.5 4-.8 5.9-1.6 5.6-2.4-.2-.6-.7-3.7-1.1-6.7-1-7.7-1.3-8.1-6.6-6.9-10.3 2.4-20.9.9-26.1-3.7-7.3-6.7-3.3-18.2 8.7-24.9 3.3-1.8 7.7-3.6 9.7-3.9l3.7-.6-2.8-7.7c-1.6-4.2-3.2-7.5-3.7-7.4s-3.5 1.1-6.6 2.3c-11.1 3.9-24.8 1.7-27.6-4.6-4.2-9.1 3-20.7 16.6-26.6 2.6-1.1 4.8-2.2 5-2.3.6-.5-6.9-14.6-7.6-14.3-.4.2-3.4 1.7-6.7 3.4-16.5 8.6-31.5 5.1-31.5-7.3 0-6.5 9.5-19.6 17.4-24 1.8-1 1.6-1.5-3.3-7.7l-5.3-6.6-3.9 3.4c-11.2 10.2-26.1 12.2-30.9 4.3-4.5-7.2-.4-20.6 8.5-28.5l4.4-3.9-5.7-5.6c-3.2-3.1-6.2-5.7-6.7-5.7-.6 0-2.1 1.6-3.5 3.5-3.6 5-10.7 10.1-16.7 12-4.6 1.5-5.8 1.5-9.4.4-6-2-8.4-5.6-8.3-12.7 0-6.5 2.6-13.2 7.5-19.3 1.7-2.2 2.9-4.5 2.6-5.2-.2-.7-3.1-3.1-6.4-5.4l-5.9-4.1-2.7 4.2c-3.5 5.6-10.2 12.1-14.6 14.3-2 1-5.8 1.8-8.4 1.8-4.1 0-5.3-.4-7.3-2.8-3.1-3.6-4.7-9.9-3.9-15.1.8-4.6 4.8-14.2 7.1-16.7 1.3-1.5.8-2-5.5-5.3-3.8-2-7.3-3.6-7.8-3.6-.4 0-1.6 2.2-2.6 4.9-3.6 10.3-15.8 20.1-23.2 18.7-3.6-.7-7.9-4.8-9.4-8.9-1.7-4.4-1.2-13.6.9-19.7 1.1-3 2.1-5.9 2.3-6.4.2-.7-13.1-5.6-15.4-5.6-.4 0-.9 1.9-1.3 4.1-.9 5.8-5.1 14.3-8.9 18-7.5 7.6-14.9 7-20.2-1.5-2.9-4.7-3-5.5-3.1-16.5l-.1-11.6-3.9-.7c-2.2-.4-5.5-.7-7.5-.7l-3.7-.1-1.2 6.6c-2.4 14.4-11 24.1-19.3 22-7-1.7-12.5-11.2-13.4-23l-.6-7.6h-15.4zm37.7 51.9c62.7 4.1 106 27.7 108.3 58.7.9 13.7-4.5 25-18.8 39.2-11.7 11.8-26.2 21.5-46.5 31.5-40.4 19.7-87.3 32.3-137 36.6-16.5 1.4-50.8.6-63.5-1.6-36.8-6.2-56-19.5-60-41.7-4.3-23.5 16.9-54.7 54-79.4 39.4-26.3 89.1-42.1 137-43.7 4.7-.2 9-.4 9.5-.5.6-.1 8.2.3 17 .9m150 89.5c4.9 2.6 10.1 9.1 11.6 14.7 2.4 9-2.7 20-11.8 25.4-14.5 8.5-34.3-3.1-34.3-20.2 0-8.6 6.4-17.9 14.5-21 5.4-2 15-1.5 20 1.1m46.7 59.8c37.3 17.7 51.1 97.7 29.8 173.6-14.1 50.3-45.8 100.1-80.1 126-18.2 13.7-37.3 19.8-51.4 16.6-24.1-5.7-36.7-32.8-36.7-79.1 0-33 6-67.2 18.1-104.6 22.4-68.8 60-123.3 92.5-133.9 8.6-2.8 20.1-2.3 27.8 1.4m-406.6 21.1c8 4.7 12.4 14.4 10.9 23.5-1 5.9-6.2 13-11.5 15.7-6.1 3.1-16 3.2-21 .2-8.5-5.1-12.3-11.4-12.3-19.9.1-6.9 2-11.4 7.1-16.3 7.5-7.3 17.8-8.5 26.8-3.2M374 300.9c13.7 4.4 27.7 15.4 34.8 27.4 20.1 33.5 5.1 76.5-31.6 91-6.5 2.5-9.5 3.1-18.7 3.5-19.6.8-33.5-4.6-47-18.2-13.1-13.1-18.5-25.9-18.5-43.8 0-18 5.6-31.5 18.5-44.3 9-9 16.5-13.5 27.7-16.5 9.6-2.6 25.3-2.2 34.8.9M163.8 345c15.9 3.8 35.6 13.4 55.7 27.1 33.4 22.7 72.2 61.6 96.7 97 26.5 38.3 41.4 76 39.4 99.9-1.5 17.3-8.5 28.6-21.8 34.8-8.1 3.9-14.8 5.2-25.7 5.2-46.4 0-111.9-38.3-152.4-89.3-34.9-43.7-55.4-97.1-51.6-134 2.3-22.4 11.7-36 28.4-41.3 6.3-2 21.7-1.7 31.3.6m245.3 200.2c5.2 1.5 11.7 7.3 14 12.2 2.2 4.9 2.5 14.3.6 18.9-3.8 9-11.7 14.1-21.8 14.2-5.6 0-7.3-.4-11.5-3-6.5-4.1-10.4-10.5-11.1-18.4-.5-5.2-.2-6.8 2.1-11.5 5.1-10.5 16.8-15.7 27.7-12.4"/></svg>