<svg xmlns="http://www.w3.org/2000/svg" width="512" height="136" preserveAspectRatio="xMidYMid"><path fill="#570DF8" d="M36.737 108.573q-10.38 0-18.71-4.712-8.331-4.71-13.179-13.179Q0 82.215 0 70.743q0-11.608 4.848-20.076t13.18-13.11q8.33-4.644 18.71-4.644 9.286 0 16.251 4.097t10.79 12.428q3.822 8.331 3.823 21.305 0 12.838-3.687 21.237-3.688 8.399-10.585 12.496-6.895 4.097-16.593 4.097m3.688-17.481q5.19 0 9.423-2.458 4.234-2.46 6.76-7.034 2.527-4.575 2.527-10.857 0-6.419-2.527-10.925t-6.76-6.966-9.423-2.458q-5.327 0-9.56 2.458-4.234 2.46-6.76 6.966-2.527 4.506-2.527 10.925 0 6.282 2.527 10.857 2.526 4.575 6.76 7.034 4.233 2.458 9.56 2.458M59.68 107.48V92.458l.41-21.851-1.366-21.715V6.146H80.03V107.48zm85.083 0V93.14L143.398 90V64.323q0-6.828-4.165-10.652-4.165-3.825-12.77-3.824-5.871 0-11.54 1.844-5.667 1.843-9.628 4.984L97.647 41.79q6.01-4.233 14.477-6.555a64.8 64.8 0 0 1 17.208-2.322q16.797 0 26.084 7.921 9.287 7.92 9.287 24.72v41.926zm-22.398 1.093q-8.603 0-14.749-2.936-6.145-2.936-9.423-7.99-3.278-5.052-3.278-11.335 0-6.555 3.21-11.472 3.208-4.916 10.174-7.716t18.164-2.8h19.53v12.428h-17.209q-7.51 0-10.31 2.458-2.8 2.46-2.8 6.146 0 4.097 3.209 6.487t8.809 2.39q5.325 0 9.56-2.526 4.233-2.527 6.145-7.443l3.278 9.833q-2.322 7.1-8.467 10.789-6.146 3.687-15.843 3.687m61.593-1.093V34.006h21.305v73.474zm10.653-83.717q-5.873 0-9.56-3.414t-3.687-8.467 3.687-8.468T194.612 0q5.873 0 9.56 3.21 3.687 3.208 3.687 8.262 0 5.325-3.619 8.809-3.62 3.482-9.628 3.482m55.174 84.81q-9.423 0-18.095-2.253-8.673-2.254-13.726-5.668l7.102-15.296q5.053 3.141 11.95 5.121t13.588 1.98q7.376 0 10.448-1.775t3.073-4.916q0-2.595-2.39-3.892t-6.35-1.98-8.673-1.366a103 103 0 0 1-9.491-1.844q-4.78-1.161-8.74-3.483-3.962-2.32-6.351-6.282-2.39-3.96-2.39-10.243 0-6.965 4.029-12.29 4.028-5.327 11.676-8.4 7.648-3.072 18.3-3.073 7.512 0 15.296 1.64 7.785 1.638 12.975 4.78l-7.102 15.158q-5.326-3.141-10.72-4.302-5.396-1.16-10.448-1.16-7.102 0-10.38 1.912-3.277 1.911-3.277 4.916 0 2.732 2.39 4.097t6.35 2.185 8.672 1.434a79 79 0 0 1 9.492 1.844q4.78 1.23 8.672 3.482 3.893 2.254 6.35 6.146 2.46 3.892 2.459 10.175 0 6.828-4.097 12.086t-11.814 8.262-18.778 3.005m57.086 26.494q-5.736 0-11.335-1.775t-9.15-4.916l7.784-15.16q2.459 2.185 5.668 3.415t6.35 1.229q4.507 0 7.17-2.117t4.849-7.033l3.823-9.014 1.64-2.322 26.357-63.368h20.486l-33.187 77.981q-3.55 8.877-8.126 13.93-4.574 5.053-10.106 7.102-5.53 2.048-12.223 2.048m12.565-24.719L286.66 34.006h21.988l25.402 61.456z"/><path d="M424.732 109.12q-20.35-.001-31.82-11.336-11.473-11.335-11.473-32.367V11.882h22.125v52.715q0 13.657 5.599 19.667 5.6 6.009 15.705 6.009 10.107 0 15.706-6.01 5.6-6.008 5.6-19.666V11.882h21.85v53.535q0 21.032-11.471 32.367t-31.821 11.335m65.144-1.64V11.882H512v95.598z"/></svg>