<svg xmlns="http://www.w3.org/2000/svg" width="665.333" height="334.667" version="1.0" viewBox="0 0 499 251"><path d="M112.1 1.1C57.4 7 12 49.4 2.5 103.4c-1.9 11.4-1.9 31.8 0 43.2 8 45.7 41.5 83.7 86.1 97.7 18.5 5.8 17.6 5.8 162.9 5.4 123.3-.3 133.5-.4 140.5-2.1 25.2-5.9 44.3-16.1 61.6-32.8 33.3-32.2 45.8-77.6 33.8-123.1-3.2-12-12.6-31-20.8-41.8-18.3-24.2-43.3-40-74.3-47.1L382.5.6l-131-.2c-72-.1-134.8.2-139.4.7m25.1 42.1c8.2 3.8 12.7 9.1 20.3 23.9 6.7 13 6.8 13 26 32.8 13.8 14.2 21.1 22.6 25.8 29.8 6.9 10.2 16.1 28.7 19.2 38.2 1.3 3.9 3.5 7.3 7.6 11.7 3.3 3.5 5.9 6.9 5.9 7.6s1.7 2.8 3.7 4.5c3.2 2.7 3.5 3.4 2.3 4.3-2.2 1.5-7.3 1.2-9.7-.5-1.5-1-2.4-1.2-2.8-.4-.4.6-1.4.8-2.2.5-.9-.4-2.1-.2-2.8.4-2.2 1.8-7.6-1.2-12.5-6.9-3.7-4.1-6.2-5.8-13.5-9l-9-3.8-.5 5.6c-.3 3.1-1.3 6.9-2.2 8.4-1 1.4-1.8 3.5-1.8 4.6 0 2.2 1.1 2.6 9.9 3.5 4.9.5 8.1 1.9 8.1 3.6 0 .4-1.7 1.2-3.7 1.9-2.8.9-4.5 1-6.6.2-4.6-1.8-7.7-1.3-12.9 2-5 3.3-11.8 5.4-11.8 3.7 0-1.8 3-6.7 4.7-7.8 2.9-1.7-3.6 0-7.7 2.1-2.6 1.3-4 1.5-5.4.7-1-.6-3.3-.8-5.2-.5-4.9.8-3.9-2.4 1.1-3.5 1.4-.3.9-.7-1.9-1.3-3.1-.6-4.9-.3-9 1.5-6.5 2.9-10.3 3.5-12 2.1-1-.9-1.6-.8-2.6.4-1.7 2.1-3.3 1.9-2.6-.3.9-2.7-3.4-4.8-6.3-3.3-2.7 1.5-3-.8-.3-3.1 3.5-3.2 9.6-4.2 17-2.9 11.5 2 16.1-1.4 12.3-9.3-1.5-3-2.1-6.2-2.1-11.1v-6.8l-7.2-7.1c-13.5-13.2-17.7-21.7-22.2-44.6-2.7-13.6-6.6-26.5-9.2-30.5-1.2-1.9-2.1-2.1-6.9-1.7-4.3.3-6.2 0-9-1.7L95.9 79l-.9 2.6c-.6 1.4-1 3.2-1 4 0 2.7-1.8 1.4-3.4-2.6-3.2-8-1.4-16.1 5.2-23 2.4-2.5 5-6.1 5.8-8 2-4.7 5.1-7.9 9.9-10.2 5.9-2.8 18.1-2.1 25.7 1.4m253.3 8.3c11.5 4 22.2 14.2 26.7 25.5 1.7 4.4 2.2 7.6 2.2 16 .1 10.1 0 10.8-3.7 18.5-3.4 7-5.5 9.6-18 22.1-11.6 11.5-15.4 14.7-20.9 17.3-5.8 2.7-7 3.8-9 7.9-1.5 3-7.4 9.9-16.8 19.3-11.2 11.4-15.9 15.4-20.7 17.8-22.3 11.1-48.1 2.5-59-19.7-3.7-7.5-3.8-7.8-3.8-19.2 0-11.1.1-11.8 3.4-18.5 2.8-5.8 5.9-9.5 18-21.6 11.7-11.7 15.9-15.2 21.1-17.8 5.7-2.7 6.9-3.8 9.3-8.4 3.3-6.4 28.8-32 35.7-36 10-5.8 24.2-7 35.5-3.2"/><path d="M171.6 179.7c-.7 4.9-4.1 10.4-6.7 11-3.6 1-1.8 3.8 2.5 3.8 2.5.1 4.1.6 4.7 1.8 1.4 2.3 6 2.2 9.3-.4 1.4-1.1 2.6-2.4 2.6-2.8 0-.5-1.5-2.4-3.4-4.4-1.8-2-4.2-5.6-5.2-8.1-1.1-2.5-2.2-4.6-2.5-4.6-.4 0-.9 1.7-1.3 3.7M372.5 68.6c-7.6 1.9-9.6 3.3-21.8 15.3-13.8 13.4-16.5 17.4-17.4 25.1-1.1 9.7 4.2 19.6 12.8 24.1 3.2 1.6 3.9 2.5 3.9 5 0 3.7-2.4 9.7-5.2 12.6l-2.1 2.2-5.6-2.8c-9.8-5-19.9-17.4-21.7-26.9-.3-1.7-1.1-3.2-1.6-3.2-2.2 0-22.9 21.5-25.3 26.3-7 14.1 1.4 31.5 16.8 34.7 11.1 2.3 17.6-1.1 33.9-17.7 10-10.3 11.8-12.7 13.2-17.3 2-6.7 2-8.3 0-14.9-1.7-6-6.8-12.1-11.9-14.5-3.1-1.5-3.5-2.1-3.5-5.4 0-4.1 2.8-11 5.3-13 3.5-2.9 18.9 8.2 24.4 17.6 1.4 2.3 3.3 6.7 4.2 9.7l1.7 5.4 11.8-11.8c6.6-6.5 12.7-13.3 13.7-15.2 6-11.3 1.3-26.6-9.9-32.3-4.9-2.5-12.1-3.8-15.7-3"/></svg>